<mxfile host="65bd71144e">
    <diagram id="2RxAkkyaNp8jyeh-AXy4" name="Page-1">
        <mxGraphModel dx="2748" dy="2100" grid="0" gridSize="10" guides="1" tooltips="1" connect="1" arrows="1" fold="1" page="1" pageScale="1" pageWidth="520" pageHeight="500" math="0" shadow="0">
            <root>
                <mxCell id="0"/>
                <mxCell id="1" parent="0"/>
                <mxCell id="4" value="Event" style="swimlane;fontStyle=0;childLayout=stackLayout;horizontal=1;startSize=24;horizontalStack=0;resizeParent=1;resizeParentMax=0;resizeLast=0;collapsible=1;marginBottom=0;autosize=1;fixDash=0;snapToPoint=1;overflow=visible;glass=0;shadow=0;rounded=1;sketch=0;swimlaneLine=1;align=center;textDirection=ltr;labelBackgroundColor=none;arcSize=16;backgroundOutline=0;treeFolding=0;treeMoving=0;comic=0;fontFamily=Lucida Console;spacingTop=0;labelPadding=0;swimlaneFillColor=#4D4D4D;fillColor=#005080;fontColor=#FFFFFF;" parent="1" vertex="1">
                    <mxGeometry x="129" y="-365" width="270" height="294" as="geometry">
                        <mxRectangle x="-383" y="201" width="63" height="24" as="alternateBounds"/>
                    </mxGeometry>
                </mxCell>
                <mxCell id="5" value="Name&#10;(String 255)" style="text;strokeColor=none;fillColor=none;align=left;verticalAlign=middle;spacingLeft=4;spacingRight=4;overflow=hidden;points=[[0,0.5],[1,0.5]];portConstraint=eastwest;rotatable=0;whiteSpace=wrap;resizeHeight=0;autosize=1;imageAspect=0;fontFamily=Lucida Console;rounded=0;glass=0;shadow=0;sketch=0;perimeterSpacing=1;spacingTop=2;spacingBottom=2;labelBorderColor=none;labelBackgroundColor=none;fontSize=8;metaEdit=0;backgroundOutline=0;fontColor=#FFFFFF;" parent="4" vertex="1">
                    <mxGeometry y="24" width="270" height="30" as="geometry"/>
                </mxCell>
                <mxCell id="76" value="ShortCode&#10;(String 255)" style="text;strokeColor=none;fillColor=none;align=left;verticalAlign=middle;spacingLeft=4;spacingRight=4;overflow=hidden;points=[[0,0.5],[1,0.5]];portConstraint=eastwest;rotatable=0;whiteSpace=wrap;resizeHeight=0;autosize=1;imageAspect=0;fontFamily=Lucida Console;rounded=0;glass=0;shadow=0;sketch=0;perimeterSpacing=1;spacingTop=2;spacingBottom=2;labelBorderColor=none;labelBackgroundColor=none;fontSize=8;metaEdit=0;backgroundOutline=0;fontColor=#FFFFFF;" parent="4" vertex="1">
                    <mxGeometry y="54" width="270" height="30" as="geometry"/>
                </mxCell>
                <mxCell id="6" value="OrganizationType&#10;(Picklist {&quot;person&quot;, &quot;company&quot;})" style="text;strokeColor=none;fillColor=none;align=left;verticalAlign=middle;spacingLeft=4;spacingRight=4;overflow=hidden;points=[[0,0.5],[1,0.5]];portConstraint=eastwest;rotatable=0;whiteSpace=wrap;resizeHeight=0;autosize=1;imageAspect=0;fontFamily=Lucida Console;rounded=0;glass=0;shadow=0;sketch=0;perimeterSpacing=1;spacingTop=2;spacingBottom=2;labelBorderColor=none;labelBackgroundColor=none;fontSize=8;metaEdit=0;backgroundOutline=0;fontColor=#FFFFFF;" parent="4" vertex="1">
                    <mxGeometry y="84" width="270" height="30" as="geometry"/>
                </mxCell>
                <mxCell id="7" value="Sequence&#10;(Event.Id)" style="text;strokeColor=none;fillColor=none;align=left;verticalAlign=middle;spacingLeft=4;spacingRight=4;overflow=hidden;points=[[0,0.5],[1,0.5]];portConstraint=eastwest;rotatable=0;whiteSpace=wrap;resizeHeight=0;autosize=1;imageAspect=0;fontFamily=Lucida Console;rounded=0;glass=0;shadow=0;sketch=0;perimeterSpacing=1;spacingTop=2;spacingBottom=2;labelBorderColor=none;labelBackgroundColor=none;fontSize=8;metaEdit=0;backgroundOutline=0;fontColor=#FFFFFF;" parent="4" vertex="1">
                    <mxGeometry y="114" width="270" height="30" as="geometry"/>
                </mxCell>
                <mxCell id="10" value="Modality&#10;(picklist {&quot;face-to-face&quot;, &quot;hybrid&quot;, &quot;virtual&quot;})" style="text;strokeColor=none;fillColor=none;align=left;verticalAlign=middle;spacingLeft=4;spacingRight=4;overflow=hidden;points=[[0,0.5],[1,0.5]];portConstraint=eastwest;rotatable=0;whiteSpace=wrap;expand=1;resizeHeight=0;autosize=1;imageAspect=0;fontFamily=Lucida Console;rounded=0;glass=0;shadow=0;sketch=0;perimeterSpacing=1;spacingTop=2;spacingBottom=2;labelBorderColor=none;labelBackgroundColor=none;fontSize=8;metaEdit=0;backgroundOutline=0;fontColor=#FFFFFF;" parent="4" vertex="1">
                    <mxGeometry y="144" width="270" height="30" as="geometry"/>
                </mxCell>
                <mxCell id="11" value="StartDate&#10;(Datetime)" style="text;strokeColor=none;fillColor=none;align=left;verticalAlign=middle;spacingLeft=4;spacingRight=4;overflow=hidden;points=[[0,0.5],[1,0.5]];portConstraint=eastwest;rotatable=0;whiteSpace=wrap;resizeHeight=0;autosize=1;imageAspect=0;fontFamily=Lucida Console;rounded=0;glass=0;shadow=0;sketch=0;perimeterSpacing=1;spacingTop=2;spacingBottom=2;labelBorderColor=none;labelBackgroundColor=none;fontSize=8;metaEdit=0;backgroundOutline=0;fontColor=#FFFFFF;" parent="4" vertex="1">
                    <mxGeometry y="174" width="270" height="30" as="geometry"/>
                </mxCell>
                <mxCell id="12" value="EndDate&#10;(Datetime)" style="text;strokeColor=none;fillColor=none;align=left;verticalAlign=middle;spacingLeft=4;spacingRight=4;overflow=hidden;points=[[0,0.5],[1,0.5]];portConstraint=eastwest;rotatable=0;whiteSpace=wrap;resizeHeight=0;autosize=1;imageAspect=0;fontFamily=Lucida Console;rounded=0;glass=0;shadow=0;sketch=0;perimeterSpacing=1;spacingTop=2;spacingBottom=2;labelBorderColor=none;labelBackgroundColor=none;fontSize=8;metaEdit=0;backgroundOutline=0;fontColor=#FFFFFF;" parent="4" vertex="1">
                    <mxGeometry y="204" width="270" height="30" as="geometry"/>
                </mxCell>
                <mxCell id="16" value="ParticipantsNumber&#10;(Integer)" style="text;strokeColor=none;fillColor=none;align=left;verticalAlign=middle;spacingLeft=4;spacingRight=4;overflow=hidden;points=[[0,0.5],[1,0.5]];portConstraint=eastwest;rotatable=0;whiteSpace=wrap;resizeHeight=0;autosize=1;imageAspect=0;fontFamily=Lucida Console;rounded=0;glass=0;shadow=0;sketch=0;perimeterSpacing=1;spacingTop=2;spacingBottom=2;labelBorderColor=none;labelBackgroundColor=none;fontSize=8;metaEdit=0;backgroundOutline=0;fontColor=#FFFFFF;" parent="4" vertex="1">
                    <mxGeometry y="234" width="270" height="30" as="geometry"/>
                </mxCell>
                <mxCell id="17" value="Rating&#10;(Integer)" style="text;strokeColor=none;fillColor=none;align=left;verticalAlign=middle;spacingLeft=4;spacingRight=4;overflow=hidden;points=[[0,0.5],[1,0.5]];portConstraint=eastwest;rotatable=0;whiteSpace=wrap;resizeHeight=0;autosize=1;imageAspect=0;fontFamily=Lucida Console;rounded=0;glass=0;shadow=0;sketch=0;perimeterSpacing=1;spacingTop=2;spacingBottom=2;labelBorderColor=none;labelBackgroundColor=none;fontSize=8;metaEdit=0;backgroundOutline=0;fontColor=#FFFFFF;" parent="4" vertex="1">
                    <mxGeometry y="264" width="270" height="30" as="geometry"/>
                </mxCell>
                <mxCell id="238" style="edgeStyle=orthogonalEdgeStyle;html=1;startArrow=ERmandOne;startFill=0;endArrow=ERmandOne;endFill=0;entryX=0.002;entryY=0.057;entryDx=0;entryDy=0;entryPerimeter=0;exitX=0;exitY=0.5;exitDx=0;exitDy=0;curved=1;fontColor=#FFFFFF;" parent="4" source="5" target="4" edge="1">
                    <mxGeometry relative="1" as="geometry">
                        <Array as="points">
                            <mxPoint x="-17" y="39"/>
                            <mxPoint x="-17" y="17"/>
                        </Array>
                    </mxGeometry>
                </mxCell>
                <mxCell id="20" value="Person" style="swimlane;fontStyle=0;childLayout=stackLayout;horizontal=1;startSize=28;horizontalStack=0;resizeParent=1;resizeParentMax=0;resizeLast=0;collapsible=1;marginBottom=0;autosize=1;fixDash=0;snapToPoint=1;overflow=visible;glass=0;shadow=0;rounded=1;sketch=0;swimlaneLine=1;align=center;textDirection=ltr;labelBackgroundColor=none;arcSize=16;backgroundOutline=0;treeFolding=0;treeMoving=0;comic=0;fontFamily=Lucida Console;spacingTop=0;labelPadding=0;swimlaneFillColor=#4D4D4D;fillColor=#666600;fontColor=#FFFFFF;" parent="1" vertex="1">
                    <mxGeometry x="438.91" y="-85" width="270" height="298" as="geometry"/>
                </mxCell>
                <mxCell id="21" value="Name&#10;(String 255)" style="text;strokeColor=none;fillColor=none;align=left;verticalAlign=middle;spacingLeft=4;spacingRight=4;overflow=hidden;points=[[0,0.5],[1,0.5]];portConstraint=eastwest;rotatable=0;whiteSpace=wrap;resizeHeight=0;autosize=1;imageAspect=0;fontFamily=Lucida Console;rounded=0;glass=0;shadow=0;sketch=0;perimeterSpacing=1;spacingTop=2;spacingBottom=2;labelBorderColor=none;labelBackgroundColor=none;fontSize=8;metaEdit=0;backgroundOutline=0;fontColor=#FFFFFF;" parent="20" vertex="1">
                    <mxGeometry y="28" width="270" height="30" as="geometry"/>
                </mxCell>
                <mxCell id="22" value="FirstName&#10;(String 255)" style="text;strokeColor=none;fillColor=none;align=left;verticalAlign=middle;spacingLeft=4;spacingRight=4;overflow=hidden;points=[[0,0.5],[1,0.5]];portConstraint=eastwest;rotatable=0;whiteSpace=wrap;resizeHeight=0;autosize=1;imageAspect=0;fontFamily=Lucida Console;rounded=0;glass=0;shadow=0;sketch=0;perimeterSpacing=1;spacingTop=2;spacingBottom=2;labelBorderColor=none;labelBackgroundColor=none;fontSize=8;metaEdit=0;backgroundOutline=0;fontColor=#FFFFFF;" parent="20" vertex="1">
                    <mxGeometry y="58" width="270" height="30" as="geometry"/>
                </mxCell>
                <mxCell id="23" value="LastName&#10;(String 255)" style="text;strokeColor=none;fillColor=none;align=left;verticalAlign=middle;spacingLeft=4;spacingRight=4;overflow=hidden;points=[[0,0.5],[1,0.5]];portConstraint=eastwest;rotatable=0;whiteSpace=wrap;resizeHeight=0;autosize=1;imageAspect=0;fontFamily=Lucida Console;rounded=0;glass=0;shadow=0;sketch=0;perimeterSpacing=1;spacingTop=2;spacingBottom=2;labelBorderColor=none;labelBackgroundColor=none;fontSize=8;metaEdit=0;backgroundOutline=0;fontColor=#FFFFFF;" parent="20" vertex="1">
                    <mxGeometry y="88" width="270" height="30" as="geometry"/>
                </mxCell>
                <mxCell id="24" value="CPF&#10;(String 11)" style="text;strokeColor=none;fillColor=none;align=left;verticalAlign=middle;spacingLeft=4;spacingRight=4;overflow=hidden;points=[[0,0.5],[1,0.5]];portConstraint=eastwest;rotatable=0;whiteSpace=wrap;resizeHeight=0;autosize=1;imageAspect=0;fontFamily=Lucida Console;rounded=0;glass=0;shadow=0;sketch=0;perimeterSpacing=1;spacingTop=2;spacingBottom=2;labelBorderColor=none;labelBackgroundColor=none;fontSize=8;metaEdit=0;backgroundOutline=0;fontColor=#FFFFFF;" parent="20" vertex="1">
                    <mxGeometry y="118" width="270" height="30" as="geometry"/>
                </mxCell>
                <mxCell id="25" value="Phone&#10;(String 20)" style="text;strokeColor=none;fillColor=none;align=left;verticalAlign=middle;spacingLeft=4;spacingRight=4;overflow=hidden;points=[[0,0.5],[1,0.5]];portConstraint=eastwest;rotatable=0;whiteSpace=wrap;resizeHeight=0;autosize=1;imageAspect=0;fontFamily=Lucida Console;rounded=0;glass=0;shadow=0;sketch=0;perimeterSpacing=1;spacingTop=2;spacingBottom=2;labelBorderColor=none;labelBackgroundColor=none;fontSize=8;metaEdit=0;backgroundOutline=0;fontColor=#FFFFFF;" parent="20" vertex="1">
                    <mxGeometry y="148" width="270" height="30" as="geometry"/>
                </mxCell>
                <mxCell id="26" value="Email&#10;(String 255)" style="text;strokeColor=none;fillColor=none;align=left;verticalAlign=middle;spacingLeft=4;spacingRight=4;overflow=hidden;points=[[0,0.5],[1,0.5]];portConstraint=eastwest;rotatable=0;whiteSpace=wrap;expand=1;resizeHeight=0;autosize=1;imageAspect=0;fontFamily=Lucida Console;rounded=0;glass=0;shadow=0;sketch=0;perimeterSpacing=1;spacingTop=2;spacingBottom=2;labelBorderColor=none;labelBackgroundColor=none;fontSize=8;metaEdit=0;backgroundOutline=0;fontColor=#FFFFFF;" parent="20" vertex="1">
                    <mxGeometry y="178" width="270" height="30" as="geometry"/>
                </mxCell>
                <mxCell id="165" value="User&#10;(User.Id)" style="text;strokeColor=none;fillColor=none;align=left;verticalAlign=middle;spacingLeft=4;spacingRight=4;overflow=hidden;points=[[0,0.5],[1,0.5]];portConstraint=eastwest;rotatable=0;whiteSpace=wrap;expand=1;resizeHeight=0;autosize=1;imageAspect=0;fontFamily=Lucida Console;rounded=0;glass=0;shadow=0;sketch=0;perimeterSpacing=1;spacingTop=2;spacingBottom=2;labelBorderColor=none;labelBackgroundColor=none;fontSize=8;metaEdit=0;backgroundOutline=0;fontColor=#FFFFFF;" parent="20" vertex="1">
                    <mxGeometry y="208" width="270" height="30" as="geometry"/>
                </mxCell>
                <mxCell id="32" value="CreatedDate&#10;(Datetime)" style="text;strokeColor=none;fillColor=none;align=left;verticalAlign=middle;spacingLeft=4;spacingRight=4;overflow=hidden;points=[[0,0.5],[1,0.5]];portConstraint=eastwest;rotatable=0;whiteSpace=wrap;resizeHeight=0;autosize=1;imageAspect=0;fontFamily=Lucida Console;rounded=0;glass=0;shadow=0;sketch=0;perimeterSpacing=1;spacingTop=2;spacingBottom=2;labelBorderColor=none;labelBackgroundColor=none;fontSize=8;metaEdit=0;backgroundOutline=0;fontColor=#FFFFFF;" parent="20" vertex="1">
                    <mxGeometry y="238" width="270" height="30" as="geometry"/>
                </mxCell>
                <mxCell id="33" value="UpdatedDate&#10;(Datetime)" style="text;strokeColor=none;fillColor=none;align=left;verticalAlign=middle;spacingLeft=4;spacingRight=4;overflow=hidden;points=[[0,0.5],[1,0.5]];portConstraint=eastwest;rotatable=0;whiteSpace=wrap;resizeHeight=0;autosize=1;imageAspect=0;fontFamily=Lucida Console;rounded=0;glass=0;shadow=0;sketch=0;perimeterSpacing=1;spacingTop=2;spacingBottom=2;labelBorderColor=none;labelBackgroundColor=none;fontSize=8;metaEdit=0;backgroundOutline=0;fontColor=#FFFFFF;" parent="20" vertex="1">
                    <mxGeometry y="268" width="270" height="30" as="geometry"/>
                </mxCell>
                <mxCell id="34" value="User" style="swimlane;fontStyle=0;childLayout=stackLayout;horizontal=1;startSize=28;horizontalStack=0;resizeParent=1;resizeParentMax=0;resizeLast=0;collapsible=1;marginBottom=0;autosize=1;fixDash=0;snapToPoint=1;overflow=visible;glass=0;shadow=0;rounded=1;sketch=0;swimlaneLine=1;align=center;textDirection=ltr;labelBackgroundColor=none;arcSize=16;backgroundOutline=0;treeFolding=0;treeMoving=0;comic=0;fontFamily=Lucida Console;spacingTop=0;labelPadding=0;swimlaneFillColor=#4D4D4D;fillColor=#666600;fontColor=#FFFFFF;" parent="1" vertex="1">
                    <mxGeometry x="769" y="-70" width="270" height="268" as="geometry"/>
                </mxCell>
                <mxCell id="35" value="Username&#10;(String 255)" style="text;strokeColor=none;fillColor=none;align=left;verticalAlign=middle;spacingLeft=4;spacingRight=4;overflow=hidden;points=[[0,0.5],[1,0.5]];portConstraint=eastwest;rotatable=0;whiteSpace=wrap;resizeHeight=0;autosize=1;imageAspect=0;fontFamily=Lucida Console;rounded=0;glass=0;shadow=0;sketch=0;perimeterSpacing=1;spacingTop=2;spacingBottom=2;labelBorderColor=none;labelBackgroundColor=none;fontSize=8;metaEdit=0;backgroundOutline=0;fontColor=#FFFFFF;" parent="34" vertex="1">
                    <mxGeometry y="28" width="270" height="30" as="geometry"/>
                </mxCell>
                <mxCell id="36" value="Password&#10;(String 255)" style="text;strokeColor=none;fillColor=none;align=left;verticalAlign=middle;spacingLeft=4;spacingRight=4;overflow=hidden;points=[[0,0.5],[1,0.5]];portConstraint=eastwest;rotatable=0;whiteSpace=wrap;resizeHeight=0;autosize=1;imageAspect=0;fontFamily=Lucida Console;rounded=0;glass=0;shadow=0;sketch=0;perimeterSpacing=1;spacingTop=2;spacingBottom=2;labelBorderColor=none;labelBackgroundColor=none;fontSize=8;metaEdit=0;backgroundOutline=0;fontColor=#FFFFFF;" parent="34" vertex="1">
                    <mxGeometry y="58" width="270" height="30" as="geometry"/>
                </mxCell>
                <mxCell id="37" value="Email&#10;(String 255)" style="text;strokeColor=none;fillColor=none;align=left;verticalAlign=middle;spacingLeft=4;spacingRight=4;overflow=hidden;points=[[0,0.5],[1,0.5]];portConstraint=eastwest;rotatable=0;whiteSpace=wrap;resizeHeight=0;autosize=1;imageAspect=0;fontFamily=Lucida Console;rounded=0;glass=0;shadow=0;sketch=0;perimeterSpacing=1;spacingTop=2;spacingBottom=2;labelBorderColor=none;labelBackgroundColor=none;fontSize=8;metaEdit=0;backgroundOutline=0;fontColor=#FFFFFF;" parent="34" vertex="1">
                    <mxGeometry y="88" width="270" height="30" as="geometry"/>
                </mxCell>
                <mxCell id="39" value="Phone&#10;(String 20)" style="text;strokeColor=none;fillColor=none;align=left;verticalAlign=middle;spacingLeft=4;spacingRight=4;overflow=hidden;points=[[0,0.5],[1,0.5]];portConstraint=eastwest;rotatable=0;whiteSpace=wrap;resizeHeight=0;autosize=1;imageAspect=0;fontFamily=Lucida Console;rounded=0;glass=0;shadow=0;sketch=0;perimeterSpacing=1;spacingTop=2;spacingBottom=2;labelBorderColor=none;labelBackgroundColor=none;fontSize=8;metaEdit=0;backgroundOutline=0;fontColor=#FFFFFF;" parent="34" vertex="1">
                    <mxGeometry y="118" width="270" height="30" as="geometry"/>
                </mxCell>
                <mxCell id="44" value="Profile&#10;(Profile.Id)" style="text;strokeColor=none;fillColor=none;align=left;verticalAlign=middle;spacingLeft=4;spacingRight=4;overflow=hidden;points=[[0,0.5],[1,0.5]];portConstraint=eastwest;rotatable=0;whiteSpace=wrap;resizeHeight=0;autosize=1;imageAspect=0;fontFamily=Lucida Console;rounded=0;glass=0;shadow=0;sketch=0;perimeterSpacing=1;spacingTop=2;spacingBottom=2;labelBorderColor=none;labelBackgroundColor=none;fontSize=8;metaEdit=0;backgroundOutline=0;fontColor=#FFFFFF;" parent="34" vertex="1">
                    <mxGeometry y="148" width="270" height="30" as="geometry"/>
                </mxCell>
                <mxCell id="167" value="Person&#10;(Person.Id)" style="text;strokeColor=none;fillColor=none;align=left;verticalAlign=middle;spacingLeft=4;spacingRight=4;overflow=hidden;points=[[0,0.5],[1,0.5]];portConstraint=eastwest;rotatable=0;whiteSpace=wrap;resizeHeight=0;autosize=1;imageAspect=0;fontFamily=Lucida Console;rounded=0;glass=0;shadow=0;sketch=0;perimeterSpacing=1;spacingTop=2;spacingBottom=2;labelBorderColor=none;labelBackgroundColor=none;fontSize=8;metaEdit=0;backgroundOutline=0;fontColor=#FFFFFF;" parent="34" vertex="1">
                    <mxGeometry y="178" width="270" height="30" as="geometry"/>
                </mxCell>
                <mxCell id="42" value="CreatedDate&#10;(Datetime)" style="text;strokeColor=none;fillColor=none;align=left;verticalAlign=middle;spacingLeft=4;spacingRight=4;overflow=hidden;points=[[0,0.5],[1,0.5]];portConstraint=eastwest;rotatable=0;whiteSpace=wrap;resizeHeight=0;autosize=1;imageAspect=0;fontFamily=Lucida Console;rounded=0;glass=0;shadow=0;sketch=0;perimeterSpacing=1;spacingTop=2;spacingBottom=2;labelBorderColor=none;labelBackgroundColor=none;fontSize=8;metaEdit=0;backgroundOutline=0;fontColor=#FFFFFF;" parent="34" vertex="1">
                    <mxGeometry y="208" width="270" height="30" as="geometry"/>
                </mxCell>
                <mxCell id="43" value="UpdatedDate&#10;(Datetime)" style="text;strokeColor=none;fillColor=none;align=left;verticalAlign=middle;spacingLeft=4;spacingRight=4;overflow=hidden;points=[[0,0.5],[1,0.5]];portConstraint=eastwest;rotatable=0;whiteSpace=wrap;resizeHeight=0;autosize=1;imageAspect=0;fontFamily=Lucida Console;rounded=0;glass=0;shadow=0;sketch=0;perimeterSpacing=1;spacingTop=2;spacingBottom=2;labelBorderColor=none;labelBackgroundColor=none;fontSize=8;metaEdit=0;backgroundOutline=0;fontColor=#FFFFFF;" parent="34" vertex="1">
                    <mxGeometry y="238" width="270" height="30" as="geometry"/>
                </mxCell>
                <mxCell id="45" value="Profile" style="swimlane;fontStyle=0;childLayout=stackLayout;horizontal=1;startSize=28;horizontalStack=0;resizeParent=1;resizeParentMax=0;resizeLast=0;collapsible=1;marginBottom=0;autosize=1;fixDash=0;snapToPoint=1;overflow=visible;glass=0;shadow=0;rounded=1;sketch=0;swimlaneLine=1;align=center;textDirection=ltr;labelBackgroundColor=none;arcSize=16;backgroundOutline=0;treeFolding=0;treeMoving=0;comic=0;fontFamily=Lucida Console;spacingTop=0;labelPadding=0;swimlaneFillColor=#4D4D4D;fillColor=#666600;fontColor=#FFFFFF;" parent="1" vertex="1">
                    <mxGeometry x="1098" y="-10" width="270" height="148" as="geometry">
                        <mxRectangle x="1188" y="380" width="78" height="28" as="alternateBounds"/>
                    </mxGeometry>
                </mxCell>
                <mxCell id="46" value="Name&#10;(String 255)" style="text;strokeColor=none;fillColor=none;align=left;verticalAlign=middle;spacingLeft=4;spacingRight=4;overflow=hidden;points=[[0,0.5],[1,0.5]];portConstraint=eastwest;rotatable=0;whiteSpace=wrap;resizeHeight=0;autosize=1;imageAspect=0;fontFamily=Lucida Console;rounded=0;glass=0;shadow=0;sketch=0;perimeterSpacing=1;spacingTop=2;spacingBottom=2;labelBorderColor=none;labelBackgroundColor=none;fontSize=8;metaEdit=0;backgroundOutline=0;fontColor=#FFFFFF;" parent="45" vertex="1">
                    <mxGeometry y="28" width="270" height="30" as="geometry"/>
                </mxCell>
                <mxCell id="54" value="Permissions?&#10;(JSON)?" style="text;strokeColor=none;fillColor=none;align=left;verticalAlign=middle;spacingLeft=4;spacingRight=4;overflow=hidden;points=[[0,0.5],[1,0.5]];portConstraint=eastwest;rotatable=0;whiteSpace=wrap;resizeHeight=0;autosize=1;imageAspect=0;fontFamily=Lucida Console;rounded=0;glass=0;shadow=0;sketch=0;perimeterSpacing=1;spacingTop=2;spacingBottom=2;labelBorderColor=none;labelBackgroundColor=none;fontSize=8;metaEdit=0;backgroundOutline=0;fontColor=#FFFFFF;" parent="45" vertex="1">
                    <mxGeometry y="58" width="270" height="30" as="geometry"/>
                </mxCell>
                <mxCell id="52" value="CreatedDate&#10;(Datetime)" style="text;strokeColor=none;fillColor=none;align=left;verticalAlign=middle;spacingLeft=4;spacingRight=4;overflow=hidden;points=[[0,0.5],[1,0.5]];portConstraint=eastwest;rotatable=0;whiteSpace=wrap;resizeHeight=0;autosize=1;imageAspect=0;fontFamily=Lucida Console;rounded=0;glass=0;shadow=0;sketch=0;perimeterSpacing=1;spacingTop=2;spacingBottom=2;labelBorderColor=none;labelBackgroundColor=none;fontSize=8;metaEdit=0;backgroundOutline=0;fontColor=#FFFFFF;" parent="45" vertex="1">
                    <mxGeometry y="88" width="270" height="30" as="geometry"/>
                </mxCell>
                <mxCell id="53" value="UpdatedDate&#10;(Datetime)" style="text;strokeColor=none;fillColor=none;align=left;verticalAlign=middle;spacingLeft=4;spacingRight=4;overflow=hidden;points=[[0,0.5],[1,0.5]];portConstraint=eastwest;rotatable=0;whiteSpace=wrap;resizeHeight=0;autosize=1;imageAspect=0;fontFamily=Lucida Console;rounded=0;glass=0;shadow=0;sketch=0;perimeterSpacing=1;spacingTop=2;spacingBottom=2;labelBorderColor=none;labelBackgroundColor=none;fontSize=8;metaEdit=0;backgroundOutline=0;fontColor=#FFFFFF;" parent="45" vertex="1">
                    <mxGeometry y="118" width="270" height="30" as="geometry"/>
                </mxCell>
                <mxCell id="62" value="Form" style="swimlane;fontStyle=0;childLayout=stackLayout;horizontal=1;startSize=28;horizontalStack=0;resizeParent=1;resizeParentMax=0;resizeLast=0;collapsible=1;marginBottom=0;autosize=1;fixDash=0;snapToPoint=1;overflow=visible;glass=0;shadow=0;rounded=1;sketch=0;swimlaneLine=1;align=center;textDirection=ltr;labelBackgroundColor=none;arcSize=16;backgroundOutline=0;treeFolding=0;treeMoving=0;comic=0;fontFamily=Lucida Console;spacingTop=0;labelPadding=0;swimlaneFillColor=#4D4D4D;fillColor=#336600;fontColor=#FFFFFF;" parent="1" vertex="1">
                    <mxGeometry x="129" y="269" width="270" height="178" as="geometry">
                        <mxRectangle x="-280" y="10" width="60" height="28" as="alternateBounds"/>
                    </mxGeometry>
                </mxCell>
                <mxCell id="63" value="Title&#10;(String 255)" style="text;strokeColor=none;fillColor=none;align=left;verticalAlign=middle;spacingLeft=4;spacingRight=4;overflow=hidden;points=[[0,0.5],[1,0.5]];portConstraint=eastwest;rotatable=0;whiteSpace=wrap;resizeHeight=0;autosize=1;imageAspect=0;fontFamily=Lucida Console;rounded=0;glass=0;shadow=0;sketch=0;perimeterSpacing=1;spacingTop=2;spacingBottom=2;labelBorderColor=none;labelBackgroundColor=none;fontSize=8;metaEdit=0;backgroundOutline=0;fontColor=#FFFFFF;" parent="62" vertex="1">
                    <mxGeometry y="28" width="270" height="30" as="geometry"/>
                </mxCell>
                <mxCell id="64" value="Description&#10;(Picklist {&quot;person&quot;, &quot;company&quot;})" style="text;strokeColor=none;fillColor=none;align=left;verticalAlign=middle;spacingLeft=4;spacingRight=4;overflow=hidden;points=[[0,0.5],[1,0.5]];portConstraint=eastwest;rotatable=0;whiteSpace=wrap;resizeHeight=0;autosize=1;imageAspect=0;fontFamily=Lucida Console;rounded=0;glass=0;shadow=0;sketch=0;perimeterSpacing=1;spacingTop=2;spacingBottom=2;labelBorderColor=none;labelBackgroundColor=none;fontSize=8;metaEdit=0;backgroundOutline=0;fontColor=#FFFFFF;" parent="62" vertex="1">
                    <mxGeometry y="58" width="270" height="30" as="geometry"/>
                </mxCell>
                <mxCell id="73" value="Id&#10;(Foreign Key)" style="text;strokeColor=none;fillColor=none;align=left;verticalAlign=middle;spacingLeft=4;spacingRight=4;overflow=hidden;points=[[0,0.5],[1,0.5]];portConstraint=eastwest;rotatable=0;whiteSpace=wrap;resizeHeight=0;autosize=1;imageAspect=0;fontFamily=Lucida Console;rounded=0;glass=0;shadow=0;sketch=0;perimeterSpacing=1;spacingTop=2;spacingBottom=2;labelBorderColor=none;labelBackgroundColor=none;fontSize=8;metaEdit=0;backgroundOutline=0;fontColor=#FFFFFF;" parent="62" vertex="1">
                    <mxGeometry y="88" width="270" height="30" as="geometry"/>
                </mxCell>
                <mxCell id="74" value="CreatedDate&#10;(Datetime)" style="text;strokeColor=none;fillColor=none;align=left;verticalAlign=middle;spacingLeft=4;spacingRight=4;overflow=hidden;points=[[0,0.5],[1,0.5]];portConstraint=eastwest;rotatable=0;whiteSpace=wrap;resizeHeight=0;autosize=1;imageAspect=0;fontFamily=Lucida Console;rounded=0;glass=0;shadow=0;sketch=0;perimeterSpacing=1;spacingTop=2;spacingBottom=2;labelBorderColor=none;labelBackgroundColor=none;fontSize=8;metaEdit=0;backgroundOutline=0;fontColor=#FFFFFF;" parent="62" vertex="1">
                    <mxGeometry y="118" width="270" height="30" as="geometry"/>
                </mxCell>
                <mxCell id="75" value="UpdatedDate&#10;(Datetime)" style="text;strokeColor=none;fillColor=none;align=left;verticalAlign=middle;spacingLeft=4;spacingRight=4;overflow=hidden;points=[[0,0.5],[1,0.5]];portConstraint=eastwest;rotatable=0;whiteSpace=wrap;resizeHeight=0;autosize=1;imageAspect=0;fontFamily=Lucida Console;rounded=0;glass=0;shadow=0;sketch=0;perimeterSpacing=1;spacingTop=2;spacingBottom=2;labelBorderColor=none;labelBackgroundColor=none;fontSize=8;metaEdit=0;backgroundOutline=0;fontColor=#FFFFFF;" parent="62" vertex="1">
                    <mxGeometry y="148" width="270" height="30" as="geometry"/>
                </mxCell>
                <mxCell id="77" value="Awnser" style="swimlane;fontStyle=0;childLayout=stackLayout;horizontal=1;startSize=26;horizontalStack=0;resizeParent=1;resizeParentMax=0;resizeLast=0;collapsible=1;marginBottom=0;autosize=1;fixDash=0;snapToPoint=1;overflow=visible;glass=0;shadow=0;rounded=1;sketch=0;swimlaneLine=1;align=center;textDirection=ltr;labelBackgroundColor=none;arcSize=16;backgroundOutline=0;treeFolding=0;treeMoving=0;comic=0;fontFamily=Lucida Console;spacingTop=0;labelPadding=0;swimlaneFillColor=#4D4D4D;fillColor=#336600;fontColor=#FFFFFF;" parent="1" vertex="1">
                    <mxGeometry x="129" y="719" width="270" height="206" as="geometry">
                        <mxRectangle x="-590" y="338" width="90" height="28" as="alternateBounds"/>
                    </mxGeometry>
                </mxCell>
                <mxCell id="78" value="Title&#10;(String 255)" style="text;strokeColor=none;fillColor=none;align=left;verticalAlign=middle;spacingLeft=4;spacingRight=4;overflow=hidden;points=[[0,0.5],[1,0.5]];portConstraint=eastwest;rotatable=0;whiteSpace=wrap;resizeHeight=0;autosize=1;imageAspect=0;fontFamily=Lucida Console;rounded=0;glass=0;shadow=0;sketch=0;perimeterSpacing=1;spacingTop=2;spacingBottom=2;labelBorderColor=none;labelBackgroundColor=none;fontSize=8;metaEdit=0;backgroundOutline=0;fontColor=#FFFFFF;" parent="77" vertex="1">
                    <mxGeometry y="26" width="270" height="30" as="geometry"/>
                </mxCell>
                <mxCell id="80" value="Description&#10;(String 511)" style="text;strokeColor=none;fillColor=none;align=left;verticalAlign=middle;spacingLeft=4;spacingRight=4;overflow=hidden;points=[[0,0.5],[1,0.5]];portConstraint=eastwest;rotatable=0;whiteSpace=wrap;resizeHeight=0;autosize=1;imageAspect=0;fontFamily=Lucida Console;rounded=0;glass=0;shadow=0;sketch=0;perimeterSpacing=1;spacingTop=2;spacingBottom=2;labelBorderColor=none;labelBackgroundColor=none;fontSize=8;metaEdit=0;backgroundOutline=0;fontColor=#FFFFFF;" parent="77" vertex="1">
                    <mxGeometry y="56" width="270" height="30" as="geometry"/>
                </mxCell>
                <mxCell id="81" value="Comportment&#10;(JSON)" style="text;strokeColor=none;fillColor=none;align=left;verticalAlign=middle;spacingLeft=4;spacingRight=4;overflow=hidden;points=[[0,0.5],[1,0.5]];portConstraint=eastwest;rotatable=0;whiteSpace=wrap;resizeHeight=0;autosize=1;imageAspect=0;fontFamily=Lucida Console;rounded=0;glass=0;shadow=0;sketch=0;perimeterSpacing=1;spacingTop=2;spacingBottom=2;labelBorderColor=none;labelBackgroundColor=none;fontSize=8;metaEdit=0;backgroundOutline=0;fontColor=#FFFFFF;" parent="77" vertex="1">
                    <mxGeometry y="86" width="270" height="30" as="geometry"/>
                </mxCell>
                <mxCell id="88" value="Id&#10;(Foreign Key)" style="text;strokeColor=none;fillColor=none;align=left;verticalAlign=middle;spacingLeft=4;spacingRight=4;overflow=hidden;points=[[0,0.5],[1,0.5]];portConstraint=eastwest;rotatable=0;whiteSpace=wrap;resizeHeight=0;autosize=1;imageAspect=0;fontFamily=Lucida Console;rounded=0;glass=0;shadow=0;sketch=0;perimeterSpacing=1;spacingTop=2;spacingBottom=2;labelBorderColor=none;labelBackgroundColor=none;fontSize=8;metaEdit=0;backgroundOutline=0;fontColor=#FFFFFF;" parent="77" vertex="1">
                    <mxGeometry y="116" width="270" height="30" as="geometry"/>
                </mxCell>
                <mxCell id="89" value="CreatedDate&#10;(Datetime)" style="text;strokeColor=none;fillColor=none;align=left;verticalAlign=middle;spacingLeft=4;spacingRight=4;overflow=hidden;points=[[0,0.5],[1,0.5]];portConstraint=eastwest;rotatable=0;whiteSpace=wrap;resizeHeight=0;autosize=1;imageAspect=0;fontFamily=Lucida Console;rounded=0;glass=0;shadow=0;sketch=0;perimeterSpacing=1;spacingTop=2;spacingBottom=2;labelBorderColor=none;labelBackgroundColor=none;fontSize=8;metaEdit=0;backgroundOutline=0;fontColor=#FFFFFF;" parent="77" vertex="1">
                    <mxGeometry y="146" width="270" height="30" as="geometry"/>
                </mxCell>
                <mxCell id="90" value="UpdatedDate&#10;(Datetime)" style="text;strokeColor=none;fillColor=none;align=left;verticalAlign=middle;spacingLeft=4;spacingRight=4;overflow=hidden;points=[[0,0.5],[1,0.5]];portConstraint=eastwest;rotatable=0;whiteSpace=wrap;resizeHeight=0;autosize=1;imageAspect=0;fontFamily=Lucida Console;rounded=0;glass=0;shadow=0;sketch=0;perimeterSpacing=1;spacingTop=2;spacingBottom=2;labelBorderColor=none;labelBackgroundColor=none;fontSize=8;metaEdit=0;backgroundOutline=0;fontColor=#FFFFFF;" parent="77" vertex="1">
                    <mxGeometry y="176" width="270" height="30" as="geometry"/>
                </mxCell>
                <mxCell id="91" value="Report" style="swimlane;fontStyle=0;childLayout=stackLayout;horizontal=1;startSize=28;horizontalStack=0;resizeParent=1;resizeParentMax=0;resizeLast=0;collapsible=1;marginBottom=0;autosize=1;fixDash=0;snapToPoint=1;overflow=visible;glass=0;shadow=0;rounded=1;sketch=0;swimlaneLine=1;align=center;textDirection=ltr;labelBackgroundColor=none;arcSize=16;backgroundOutline=0;treeFolding=0;treeMoving=0;comic=0;fontFamily=Lucida Console;spacingTop=0;labelPadding=0;swimlaneFillColor=#4D4D4D;fillColor=#4C0099;fontColor=#FFFFFF;" parent="1" vertex="1">
                    <mxGeometry x="601" y="283" width="270" height="418" as="geometry"/>
                </mxCell>
                <mxCell id="92" value="Name&#10;(String 255)" style="text;strokeColor=none;fillColor=none;align=left;verticalAlign=middle;spacingLeft=4;spacingRight=4;overflow=hidden;points=[[0,0.5],[1,0.5]];portConstraint=eastwest;rotatable=0;whiteSpace=wrap;resizeHeight=0;autosize=1;imageAspect=0;fontFamily=Lucida Console;rounded=0;glass=0;shadow=0;sketch=0;perimeterSpacing=1;spacingTop=2;spacingBottom=2;labelBorderColor=none;labelBackgroundColor=none;fontSize=8;metaEdit=0;backgroundOutline=0;fontColor=#FFFFFF;" parent="91" vertex="1">
                    <mxGeometry y="28" width="270" height="30" as="geometry"/>
                </mxCell>
                <mxCell id="93" value="OrganizationType&#10;(Picklist {&quot;person&quot;, &quot;company&quot;})" style="text;strokeColor=none;fillColor=none;align=left;verticalAlign=middle;spacingLeft=4;spacingRight=4;overflow=hidden;points=[[0,0.5],[1,0.5]];portConstraint=eastwest;rotatable=0;whiteSpace=wrap;resizeHeight=0;autosize=1;imageAspect=0;fontFamily=Lucida Console;rounded=0;glass=0;shadow=0;sketch=0;perimeterSpacing=1;spacingTop=2;spacingBottom=2;labelBorderColor=none;labelBackgroundColor=none;fontSize=8;metaEdit=0;backgroundOutline=0;fontColor=#FFFFFF;" parent="91" vertex="1">
                    <mxGeometry y="58" width="270" height="30" as="geometry"/>
                </mxCell>
                <mxCell id="94" value="Company&#10;(Company.Id)" style="text;strokeColor=none;fillColor=none;align=left;verticalAlign=middle;spacingLeft=4;spacingRight=4;overflow=hidden;points=[[0,0.5],[1,0.5]];portConstraint=eastwest;rotatable=0;whiteSpace=wrap;resizeHeight=0;autosize=1;imageAspect=0;fontFamily=Lucida Console;rounded=0;glass=0;shadow=0;sketch=0;perimeterSpacing=1;spacingTop=2;spacingBottom=2;labelBorderColor=none;labelBackgroundColor=none;fontSize=8;metaEdit=0;backgroundOutline=0;fontColor=#FFFFFF;" parent="91" vertex="1">
                    <mxGeometry y="88" width="270" height="30" as="geometry"/>
                </mxCell>
                <mxCell id="95" value="Person&#10;(Person.Id)" style="text;strokeColor=none;fillColor=none;align=left;verticalAlign=middle;spacingLeft=4;spacingRight=4;overflow=hidden;points=[[0,0.5],[1,0.5]];portConstraint=eastwest;rotatable=0;whiteSpace=wrap;resizeHeight=0;autosize=1;imageAspect=0;fontFamily=Lucida Console;rounded=0;glass=0;shadow=0;sketch=0;perimeterSpacing=1;spacingTop=2;spacingBottom=2;labelBorderColor=none;labelBackgroundColor=none;fontSize=8;metaEdit=0;backgroundOutline=0;fontColor=#FFFFFF;" parent="91" vertex="1">
                    <mxGeometry y="118" width="270" height="30" as="geometry"/>
                </mxCell>
                <mxCell id="96" value="Sequence&#10;(Event.Id)" style="text;strokeColor=none;fillColor=none;align=left;verticalAlign=middle;spacingLeft=4;spacingRight=4;overflow=hidden;points=[[0,0.5],[1,0.5]];portConstraint=eastwest;rotatable=0;whiteSpace=wrap;resizeHeight=0;autosize=1;imageAspect=0;fontFamily=Lucida Console;rounded=0;glass=0;shadow=0;sketch=0;perimeterSpacing=1;spacingTop=2;spacingBottom=2;labelBorderColor=none;labelBackgroundColor=none;fontSize=8;metaEdit=0;backgroundOutline=0;fontColor=#FFFFFF;" parent="91" vertex="1">
                    <mxGeometry y="148" width="270" height="30" as="geometry"/>
                </mxCell>
                <mxCell id="97" value="Modality&#10;(picklist {&quot;face-to-face&quot;, &quot;hybrid&quot;, &quot;virtual&quot;})" style="text;strokeColor=none;fillColor=none;align=left;verticalAlign=middle;spacingLeft=4;spacingRight=4;overflow=hidden;points=[[0,0.5],[1,0.5]];portConstraint=eastwest;rotatable=0;whiteSpace=wrap;expand=1;resizeHeight=0;autosize=1;imageAspect=0;fontFamily=Lucida Console;rounded=0;glass=0;shadow=0;sketch=0;perimeterSpacing=1;spacingTop=2;spacingBottom=2;labelBorderColor=none;labelBackgroundColor=none;fontSize=8;metaEdit=0;backgroundOutline=0;fontColor=#FFFFFF;" parent="91" vertex="1">
                    <mxGeometry y="178" width="270" height="30" as="geometry"/>
                </mxCell>
                <mxCell id="98" value="StartDate&#10;(Datetime)" style="text;strokeColor=none;fillColor=none;align=left;verticalAlign=middle;spacingLeft=4;spacingRight=4;overflow=hidden;points=[[0,0.5],[1,0.5]];portConstraint=eastwest;rotatable=0;whiteSpace=wrap;resizeHeight=0;autosize=1;imageAspect=0;fontFamily=Lucida Console;rounded=0;glass=0;shadow=0;sketch=0;perimeterSpacing=1;spacingTop=2;spacingBottom=2;labelBorderColor=none;labelBackgroundColor=none;fontSize=8;metaEdit=0;backgroundOutline=0;fontColor=#FFFFFF;" parent="91" vertex="1">
                    <mxGeometry y="208" width="270" height="30" as="geometry"/>
                </mxCell>
                <mxCell id="99" value="EndDate&#10;(Datetime)" style="text;strokeColor=none;fillColor=none;align=left;verticalAlign=middle;spacingLeft=4;spacingRight=4;overflow=hidden;points=[[0,0.5],[1,0.5]];portConstraint=eastwest;rotatable=0;whiteSpace=wrap;resizeHeight=0;autosize=1;imageAspect=0;fontFamily=Lucida Console;rounded=0;glass=0;shadow=0;sketch=0;perimeterSpacing=1;spacingTop=2;spacingBottom=2;labelBorderColor=none;labelBackgroundColor=none;fontSize=8;metaEdit=0;backgroundOutline=0;fontColor=#FFFFFF;" parent="91" vertex="1">
                    <mxGeometry y="238" width="270" height="30" as="geometry"/>
                </mxCell>
                <mxCell id="100" value="ParticipantsNumber&#10;(Integer)" style="text;strokeColor=none;fillColor=none;align=left;verticalAlign=middle;spacingLeft=4;spacingRight=4;overflow=hidden;points=[[0,0.5],[1,0.5]];portConstraint=eastwest;rotatable=0;whiteSpace=wrap;resizeHeight=0;autosize=1;imageAspect=0;fontFamily=Lucida Console;rounded=0;glass=0;shadow=0;sketch=0;perimeterSpacing=1;spacingTop=2;spacingBottom=2;labelBorderColor=none;labelBackgroundColor=none;fontSize=8;metaEdit=0;backgroundOutline=0;fontColor=#FFFFFF;" parent="91" vertex="1">
                    <mxGeometry y="268" width="270" height="30" as="geometry"/>
                </mxCell>
                <mxCell id="101" value="Rating&#10;(Integer)" style="text;strokeColor=none;fillColor=none;align=left;verticalAlign=middle;spacingLeft=4;spacingRight=4;overflow=hidden;points=[[0,0.5],[1,0.5]];portConstraint=eastwest;rotatable=0;whiteSpace=wrap;resizeHeight=0;autosize=1;imageAspect=0;fontFamily=Lucida Console;rounded=0;glass=0;shadow=0;sketch=0;perimeterSpacing=1;spacingTop=2;spacingBottom=2;labelBorderColor=none;labelBackgroundColor=none;fontSize=8;metaEdit=0;backgroundOutline=0;fontColor=#FFFFFF;" parent="91" vertex="1">
                    <mxGeometry y="298" width="270" height="30" as="geometry"/>
                </mxCell>
                <mxCell id="102" value="Id&#10;(Foreign Key)" style="text;strokeColor=none;fillColor=none;align=left;verticalAlign=middle;spacingLeft=4;spacingRight=4;overflow=hidden;points=[[0,0.5],[1,0.5]];portConstraint=eastwest;rotatable=0;whiteSpace=wrap;resizeHeight=0;autosize=1;imageAspect=0;fontFamily=Lucida Console;rounded=0;glass=0;shadow=0;sketch=0;perimeterSpacing=1;spacingTop=2;spacingBottom=2;labelBorderColor=none;labelBackgroundColor=none;fontSize=8;metaEdit=0;backgroundOutline=0;fontColor=#FFFFFF;" parent="91" vertex="1">
                    <mxGeometry y="328" width="270" height="30" as="geometry"/>
                </mxCell>
                <mxCell id="103" value="CreatedDate&#10;(Datetime)" style="text;strokeColor=none;fillColor=none;align=left;verticalAlign=middle;spacingLeft=4;spacingRight=4;overflow=hidden;points=[[0,0.5],[1,0.5]];portConstraint=eastwest;rotatable=0;whiteSpace=wrap;resizeHeight=0;autosize=1;imageAspect=0;fontFamily=Lucida Console;rounded=0;glass=0;shadow=0;sketch=0;perimeterSpacing=1;spacingTop=2;spacingBottom=2;labelBorderColor=none;labelBackgroundColor=none;fontSize=8;metaEdit=0;backgroundOutline=0;fontColor=#FFFFFF;" parent="91" vertex="1">
                    <mxGeometry y="358" width="270" height="30" as="geometry"/>
                </mxCell>
                <mxCell id="104" value="UpdatedDate&#10;(Datetime)" style="text;strokeColor=none;fillColor=none;align=left;verticalAlign=middle;spacingLeft=4;spacingRight=4;overflow=hidden;points=[[0,0.5],[1,0.5]];portConstraint=eastwest;rotatable=0;whiteSpace=wrap;resizeHeight=0;autosize=1;imageAspect=0;fontFamily=Lucida Console;rounded=0;glass=0;shadow=0;sketch=0;perimeterSpacing=1;spacingTop=2;spacingBottom=2;labelBorderColor=none;labelBackgroundColor=none;fontSize=8;metaEdit=0;backgroundOutline=0;fontColor=#FFFFFF;" parent="91" vertex="1">
                    <mxGeometry y="388" width="270" height="30" as="geometry"/>
                </mxCell>
                <mxCell id="106" value="Question" style="swimlane;fontStyle=0;childLayout=stackLayout;horizontal=1;startSize=26;horizontalStack=0;resizeParent=1;resizeParentMax=0;resizeLast=0;collapsible=1;marginBottom=0;autosize=1;fixDash=0;snapToPoint=1;overflow=visible;glass=0;shadow=0;rounded=1;sketch=0;swimlaneLine=1;align=center;textDirection=ltr;labelBackgroundColor=none;arcSize=16;backgroundOutline=0;treeFolding=0;treeMoving=0;comic=0;fontFamily=Lucida Console;spacingTop=0;labelPadding=0;swimlaneFillColor=#4D4D4D;fillColor=#336600;fontColor=#FFFFFF;" parent="1" vertex="1">
                    <mxGeometry x="129" y="477" width="270" height="206" as="geometry">
                        <mxRectangle x="-590" y="80" width="120" height="28" as="alternateBounds"/>
                    </mxGeometry>
                </mxCell>
                <mxCell id="107" value="Question&#10;(Question.Id)" style="text;strokeColor=none;fillColor=none;align=left;verticalAlign=middle;spacingLeft=4;spacingRight=4;overflow=hidden;points=[[0,0.5],[1,0.5]];portConstraint=eastwest;rotatable=0;whiteSpace=wrap;resizeHeight=0;autosize=1;imageAspect=0;fontFamily=Lucida Console;rounded=0;glass=0;shadow=0;sketch=0;perimeterSpacing=1;spacingTop=2;spacingBottom=2;labelBorderColor=none;labelBackgroundColor=none;fontSize=8;metaEdit=0;backgroundOutline=0;fontColor=#FFFFFF;" parent="106" vertex="1">
                    <mxGeometry y="26" width="270" height="30" as="geometry"/>
                </mxCell>
                <mxCell id="108" value="Form&#10;(Form.Id)" style="text;strokeColor=none;fillColor=none;align=left;verticalAlign=middle;spacingLeft=4;spacingRight=4;overflow=hidden;points=[[0,0.5],[1,0.5]];portConstraint=eastwest;rotatable=0;whiteSpace=wrap;resizeHeight=0;autosize=1;imageAspect=0;fontFamily=Lucida Console;rounded=0;glass=0;shadow=0;sketch=0;perimeterSpacing=1;spacingTop=2;spacingBottom=2;labelBorderColor=none;labelBackgroundColor=none;fontSize=8;metaEdit=0;backgroundOutline=0;fontColor=#FFFFFF;" parent="106" vertex="1">
                    <mxGeometry y="56" width="270" height="30" as="geometry"/>
                </mxCell>
                <mxCell id="109" value="Required&#10;(Boolean)" style="text;strokeColor=none;fillColor=none;align=left;verticalAlign=middle;spacingLeft=4;spacingRight=4;overflow=hidden;points=[[0,0.5],[1,0.5]];portConstraint=eastwest;rotatable=0;whiteSpace=wrap;resizeHeight=0;autosize=1;imageAspect=0;fontFamily=Lucida Console;rounded=0;glass=0;shadow=0;sketch=0;perimeterSpacing=1;spacingTop=2;spacingBottom=2;labelBorderColor=none;labelBackgroundColor=none;fontSize=8;metaEdit=0;backgroundOutline=0;fontColor=#FFFFFF;" parent="106" vertex="1">
                    <mxGeometry y="86" width="270" height="30" as="geometry"/>
                </mxCell>
                <mxCell id="111" value="Id&#10;(Foreign Key)" style="text;strokeColor=none;fillColor=none;align=left;verticalAlign=middle;spacingLeft=4;spacingRight=4;overflow=hidden;points=[[0,0.5],[1,0.5]];portConstraint=eastwest;rotatable=0;whiteSpace=wrap;resizeHeight=0;autosize=1;imageAspect=0;fontFamily=Lucida Console;rounded=0;glass=0;shadow=0;sketch=0;perimeterSpacing=1;spacingTop=2;spacingBottom=2;labelBorderColor=none;labelBackgroundColor=none;fontSize=8;metaEdit=0;backgroundOutline=0;fontColor=#FFFFFF;" parent="106" vertex="1">
                    <mxGeometry y="116" width="270" height="30" as="geometry"/>
                </mxCell>
                <mxCell id="112" value="CreatedDate&#10;(Datetime)" style="text;strokeColor=none;fillColor=none;align=left;verticalAlign=middle;spacingLeft=4;spacingRight=4;overflow=hidden;points=[[0,0.5],[1,0.5]];portConstraint=eastwest;rotatable=0;whiteSpace=wrap;resizeHeight=0;autosize=1;imageAspect=0;fontFamily=Lucida Console;rounded=0;glass=0;shadow=0;sketch=0;perimeterSpacing=1;spacingTop=2;spacingBottom=2;labelBorderColor=none;labelBackgroundColor=none;fontSize=8;metaEdit=0;backgroundOutline=0;fontColor=#FFFFFF;" parent="106" vertex="1">
                    <mxGeometry y="146" width="270" height="30" as="geometry"/>
                </mxCell>
                <mxCell id="113" value="UpdatedDate&#10;(Datetime)" style="text;strokeColor=none;fillColor=none;align=left;verticalAlign=middle;spacingLeft=4;spacingRight=4;overflow=hidden;points=[[0,0.5],[1,0.5]];portConstraint=eastwest;rotatable=0;whiteSpace=wrap;resizeHeight=0;autosize=1;imageAspect=0;fontFamily=Lucida Console;rounded=0;glass=0;shadow=0;sketch=0;perimeterSpacing=1;spacingTop=2;spacingBottom=2;labelBorderColor=none;labelBackgroundColor=none;fontSize=8;metaEdit=0;backgroundOutline=0;fontColor=#FFFFFF;" parent="106" vertex="1">
                    <mxGeometry y="176" width="270" height="30" as="geometry"/>
                </mxCell>
                <mxCell id="118" value="EventForm" style="swimlane;fontStyle=0;childLayout=stackLayout;horizontal=1;startSize=28;horizontalStack=0;resizeParent=1;resizeParentMax=0;resizeLast=0;collapsible=1;marginBottom=0;autosize=1;fixDash=0;snapToPoint=1;overflow=visible;glass=0;shadow=0;rounded=1;sketch=0;swimlaneLine=1;align=center;textDirection=ltr;labelBackgroundColor=none;arcSize=16;backgroundOutline=0;treeFolding=0;treeMoving=0;comic=0;fontFamily=Lucida Console;spacingTop=0;labelPadding=0;swimlaneFillColor=#4D4D4D;fillColor=#005080;fontColor=#FFFFFF;" parent="1" vertex="1">
                    <mxGeometry x="129" y="-28" width="270" height="268" as="geometry">
                        <mxRectangle x="-280" y="10" width="60" height="28" as="alternateBounds"/>
                    </mxGeometry>
                </mxCell>
                <mxCell id="134" value="Event&#10;(Event.Id)" style="text;strokeColor=none;fillColor=none;align=left;verticalAlign=middle;spacingLeft=4;spacingRight=4;overflow=hidden;points=[[0,0.5],[1,0.5]];portConstraint=eastwest;rotatable=0;whiteSpace=wrap;resizeHeight=0;autosize=1;imageAspect=0;fontFamily=Lucida Console;rounded=0;glass=0;shadow=0;sketch=0;perimeterSpacing=1;spacingTop=2;spacingBottom=2;labelBorderColor=none;labelBackgroundColor=none;fontSize=8;metaEdit=0;backgroundOutline=0;fontColor=#FFFFFF;" parent="118" vertex="1">
                    <mxGeometry y="28" width="270" height="30" as="geometry"/>
                </mxCell>
                <mxCell id="135" value="Form&#10;(Form.Id)" style="text;strokeColor=none;fillColor=none;align=left;verticalAlign=middle;spacingLeft=4;spacingRight=4;overflow=hidden;points=[[0,0.5],[1,0.5]];portConstraint=eastwest;rotatable=0;whiteSpace=wrap;resizeHeight=0;autosize=1;imageAspect=0;fontFamily=Lucida Console;rounded=0;glass=0;shadow=0;sketch=0;perimeterSpacing=1;spacingTop=2;spacingBottom=2;labelBorderColor=none;labelBackgroundColor=none;fontSize=8;metaEdit=0;backgroundOutline=0;fontColor=#FFFFFF;" parent="118" vertex="1">
                    <mxGeometry y="58" width="270" height="30" as="geometry"/>
                </mxCell>
                <mxCell id="125" value="StartDate&#10;(Datetime)" style="text;strokeColor=none;fillColor=none;align=left;verticalAlign=middle;spacingLeft=4;spacingRight=4;overflow=hidden;points=[[0,0.5],[1,0.5]];portConstraint=eastwest;rotatable=0;whiteSpace=wrap;resizeHeight=0;autosize=1;imageAspect=0;fontFamily=Lucida Console;rounded=0;glass=0;shadow=0;sketch=0;perimeterSpacing=1;spacingTop=2;spacingBottom=2;labelBorderColor=none;labelBackgroundColor=none;fontSize=8;metaEdit=0;backgroundOutline=0;fontColor=#FFFFFF;" parent="118" vertex="1">
                    <mxGeometry y="88" width="270" height="30" as="geometry"/>
                </mxCell>
                <mxCell id="126" value="EndDate&#10;(Datetime)" style="text;strokeColor=none;fillColor=none;align=left;verticalAlign=middle;spacingLeft=4;spacingRight=4;overflow=hidden;points=[[0,0.5],[1,0.5]];portConstraint=eastwest;rotatable=0;whiteSpace=wrap;resizeHeight=0;autosize=1;imageAspect=0;fontFamily=Lucida Console;rounded=0;glass=0;shadow=0;sketch=0;perimeterSpacing=1;spacingTop=2;spacingBottom=2;labelBorderColor=none;labelBackgroundColor=none;fontSize=8;metaEdit=0;backgroundOutline=0;fontColor=#FFFFFF;" parent="118" vertex="1">
                    <mxGeometry y="118" width="270" height="30" as="geometry"/>
                </mxCell>
                <mxCell id="128" value="Rating&#10;(Integer)" style="text;strokeColor=none;fillColor=none;align=left;verticalAlign=middle;spacingLeft=4;spacingRight=4;overflow=hidden;points=[[0,0.5],[1,0.5]];portConstraint=eastwest;rotatable=0;whiteSpace=wrap;resizeHeight=0;autosize=1;imageAspect=0;fontFamily=Lucida Console;rounded=0;glass=0;shadow=0;sketch=0;perimeterSpacing=1;spacingTop=2;spacingBottom=2;labelBorderColor=none;labelBackgroundColor=none;fontSize=8;metaEdit=0;backgroundOutline=0;fontColor=#FFFFFF;" parent="118" vertex="1">
                    <mxGeometry y="148" width="270" height="30" as="geometry"/>
                </mxCell>
                <mxCell id="129" value="Id&#10;(Foreign Key)" style="text;strokeColor=none;fillColor=none;align=left;verticalAlign=middle;spacingLeft=4;spacingRight=4;overflow=hidden;points=[[0,0.5],[1,0.5]];portConstraint=eastwest;rotatable=0;whiteSpace=wrap;resizeHeight=0;autosize=1;imageAspect=0;fontFamily=Lucida Console;rounded=0;glass=0;shadow=0;sketch=0;perimeterSpacing=1;spacingTop=2;spacingBottom=2;labelBorderColor=none;labelBackgroundColor=none;fontSize=8;metaEdit=0;backgroundOutline=0;fontColor=#FFFFFF;" parent="118" vertex="1">
                    <mxGeometry y="178" width="270" height="30" as="geometry"/>
                </mxCell>
                <mxCell id="130" value="CreatedDate&#10;(Datetime)" style="text;strokeColor=none;fillColor=none;align=left;verticalAlign=middle;spacingLeft=4;spacingRight=4;overflow=hidden;points=[[0,0.5],[1,0.5]];portConstraint=eastwest;rotatable=0;whiteSpace=wrap;resizeHeight=0;autosize=1;imageAspect=0;fontFamily=Lucida Console;rounded=0;glass=0;shadow=0;sketch=0;perimeterSpacing=1;spacingTop=2;spacingBottom=2;labelBorderColor=none;labelBackgroundColor=none;fontSize=8;metaEdit=0;backgroundOutline=0;fontColor=#FFFFFF;" parent="118" vertex="1">
                    <mxGeometry y="208" width="270" height="30" as="geometry"/>
                </mxCell>
                <mxCell id="131" value="UpdatedDate&#10;(Datetime)" style="text;strokeColor=none;fillColor=none;align=left;verticalAlign=middle;spacingLeft=4;spacingRight=4;overflow=hidden;points=[[0,0.5],[1,0.5]];portConstraint=eastwest;rotatable=0;whiteSpace=wrap;resizeHeight=0;autosize=1;imageAspect=0;fontFamily=Lucida Console;rounded=0;glass=0;shadow=0;sketch=0;perimeterSpacing=1;spacingTop=2;spacingBottom=2;labelBorderColor=none;labelBackgroundColor=none;fontSize=8;metaEdit=0;backgroundOutline=0;fontColor=#FFFFFF;" parent="118" vertex="1">
                    <mxGeometry y="238" width="270" height="30" as="geometry"/>
                </mxCell>
                <mxCell id="132" style="edgeStyle=none;html=1;startArrow=ERmandOne;startFill=0;endArrow=ERmany;endFill=0;fontColor=#FFFFFF;" parent="1" source="4" target="118" edge="1">
                    <mxGeometry relative="1" as="geometry"/>
                </mxCell>
                <mxCell id="151" value="EventRole" style="swimlane;fontStyle=0;childLayout=stackLayout;horizontal=1;startSize=28;horizontalStack=0;resizeParent=1;resizeParentMax=0;resizeLast=0;collapsible=1;marginBottom=0;autosize=1;fixDash=0;snapToPoint=1;overflow=visible;glass=0;shadow=0;rounded=1;sketch=0;swimlaneLine=1;align=center;textDirection=ltr;labelBackgroundColor=none;arcSize=16;backgroundOutline=0;treeFolding=0;treeMoving=0;comic=0;fontFamily=Lucida Console;spacingTop=0;labelPadding=0;swimlaneFillColor=#4D4D4D;fillColor=#005080;fontColor=#FFFFFF;" parent="1" vertex="1">
                    <mxGeometry x="438.91" y="-180" width="270" height="58" as="geometry"/>
                </mxCell>
                <mxCell id="152" value="Name&#10;(String 255)" style="text;strokeColor=none;fillColor=none;align=left;verticalAlign=middle;spacingLeft=4;spacingRight=4;overflow=hidden;points=[[0,0.5],[1,0.5]];portConstraint=eastwest;rotatable=0;whiteSpace=wrap;resizeHeight=0;autosize=1;imageAspect=0;fontFamily=Lucida Console;rounded=0;glass=0;shadow=0;sketch=0;perimeterSpacing=1;spacingTop=2;spacingBottom=2;labelBorderColor=none;labelBackgroundColor=none;fontSize=8;metaEdit=0;backgroundOutline=0;fontColor=#FFFFFF;" parent="151" vertex="1">
                    <mxGeometry y="28" width="270" height="30" as="geometry"/>
                </mxCell>
                <mxCell id="161" style="edgeStyle=elbowEdgeStyle;html=1;startArrow=ERmany;startFill=0;endArrow=ERmandOne;endFill=0;entryX=1.002;entryY=0.33;entryDx=0;entryDy=0;entryPerimeter=0;fontColor=#FFFFFF;" parent="1" source="151" target="12" edge="1">
                    <mxGeometry relative="1" as="geometry">
                        <mxPoint x="440.91" y="175.9655172413793" as="sourcePoint"/>
                    </mxGeometry>
                </mxCell>
                <mxCell id="163" style="edgeStyle=orthogonalEdgeStyle;html=1;curved=1;startArrow=ERmany;startFill=0;endArrow=ERmandOne;endFill=0;fontColor=#FFFFFF;" parent="1" source="20" target="151" edge="1">
                    <mxGeometry relative="1" as="geometry">
                        <mxPoint x="713.91" y="-45.9655172413793" as="targetPoint"/>
                    </mxGeometry>
                </mxCell>
                <mxCell id="164" style="edgeStyle=elbowEdgeStyle;html=1;endArrow=ERmany;endFill=0;startArrow=ERmany;startFill=0;exitX=1;exitY=0.5;exitDx=0;exitDy=0;fontColor=#FFFFFF;" parent="1" source="16" target="20" edge="1">
                    <mxGeometry relative="1" as="geometry">
                        <mxPoint x="708.9789655172414" y="-90.9310344827586" as="sourcePoint"/>
                        <mxPoint x="844.91" y="-128" as="targetPoint"/>
                    </mxGeometry>
                </mxCell>
                <mxCell id="166" style="html=1;jumpStyle=none;edgeStyle=entityRelationEdgeStyle;sketch=0;shadow=0;jumpSize=6;rounded=1;startArrow=ERmandOne;startFill=0;sourcePerimeterSpacing=0;endArrow=ERmandOne;endFill=0;fontColor=#FFFFFF;" parent="1" source="20" target="34" edge="1">
                    <mxGeometry relative="1" as="geometry"/>
                </mxCell>
                <mxCell id="169" style="edgeStyle=entityRelationEdgeStyle;html=1;endArrow=ERmandOne;endFill=0;startArrow=ERmany;startFill=0;fontColor=#FFFFFF;" parent="1" source="34" target="45" edge="1">
                    <mxGeometry relative="1" as="geometry"/>
                </mxCell>
                <mxCell id="171" style="edgeStyle=entityRelationEdgeStyle;html=1;startArrow=ERmandOne;startFill=0;endArrow=ERmany;endFill=0;entryX=1;entryY=0;entryDx=0;entryDy=0;fontColor=#FFFFFF;" parent="1" source="118" target="62" edge="1">
                    <mxGeometry relative="1" as="geometry"/>
                </mxCell>
                <mxCell id="172" style="edgeStyle=entityRelationEdgeStyle;html=1;endArrow=ERmandOne;endFill=0;startArrow=ERmany;startFill=0;exitX=0.997;exitY=0.052;exitDx=0;exitDy=0;exitPerimeter=0;fontColor=#FFFFFF;" parent="1" source="106" target="73" edge="1">
                    <mxGeometry relative="1" as="geometry"/>
                </mxCell>
                <mxCell id="173" style="edgeStyle=entityRelationEdgeStyle;html=1;startArrow=ERmandOne;startFill=0;endArrow=ERmany;endFill=0;fontColor=#FFFFFF;" parent="1" source="106" target="88" edge="1">
                    <mxGeometry relative="1" as="geometry"/>
                </mxCell>
                <mxCell id="182" style="edgeStyle=orthogonalEdgeStyle;html=1;elbow=vertical;startArrow=ERmany;startFill=0;endArrow=ERmandOne;endFill=0;curved=1;entryX=0.75;entryY=0;entryDx=0;entryDy=0;fontColor=#FFFFFF;" parent="1" source="174" target="4" edge="1">
                    <mxGeometry relative="1" as="geometry">
                        <mxPoint x="441.91" y="-548" as="sourcePoint"/>
                        <mxPoint x="152.91" y="-139" as="targetPoint"/>
                    </mxGeometry>
                </mxCell>
                <mxCell id="174" value="EventPersonRegistration" style="swimlane;fontStyle=0;childLayout=stackLayout;horizontal=1;startSize=26;horizontalStack=0;resizeParent=1;resizeParentMax=0;resizeLast=0;collapsible=1;marginBottom=0;autosize=1;fixDash=0;snapToPoint=1;overflow=visible;glass=0;shadow=0;rounded=1;sketch=0;swimlaneLine=1;align=center;textDirection=ltr;labelBackgroundColor=none;arcSize=16;backgroundOutline=0;treeFolding=0;treeMoving=0;comic=0;fontFamily=Lucida Console;spacingTop=0;labelPadding=0;swimlaneFillColor=#4D4D4D;fillColor=#005080;fontColor=#FFFFFF;" parent="1" vertex="1">
                    <mxGeometry x="438.91" y="-460" width="270" height="82" as="geometry"/>
                </mxCell>
                <mxCell id="194" value="Status&#10;(Picklist {&quot;pending&quot;, &quot;approved&quot;, &quot;rejected&quot;})" style="text;strokeColor=none;fillColor=none;align=left;verticalAlign=middle;spacingLeft=4;spacingRight=4;overflow=hidden;points=[[0,0.5],[1,0.5]];portConstraint=eastwest;rotatable=0;whiteSpace=wrap;expand=1;resizeHeight=0;autosize=1;imageAspect=0;fontFamily=Lucida Console;rounded=0;glass=0;shadow=0;sketch=0;perimeterSpacing=1;spacingTop=2;spacingBottom=2;labelBorderColor=none;labelBackgroundColor=none;fontSize=8;metaEdit=0;backgroundOutline=0;fontColor=#FFFFFF;" parent="174" vertex="1">
                    <mxGeometry y="26" width="270" height="28" as="geometry"/>
                </mxCell>
                <mxCell id="178" value="Reason&#10;(String 511)" style="text;strokeColor=none;fillColor=none;align=left;verticalAlign=middle;spacingLeft=4;spacingRight=4;overflow=hidden;points=[[0,0.5],[1,0.5]];portConstraint=eastwest;rotatable=0;whiteSpace=wrap;expand=1;resizeHeight=0;autosize=1;imageAspect=0;fontFamily=Lucida Console;rounded=0;glass=0;shadow=0;sketch=0;perimeterSpacing=1;spacingTop=2;spacingBottom=2;labelBorderColor=none;labelBackgroundColor=none;fontSize=8;metaEdit=0;backgroundOutline=0;fontColor=#FFFFFF;" parent="174" vertex="1">
                    <mxGeometry y="54" width="270" height="28" as="geometry"/>
                </mxCell>
                <mxCell id="183" style="edgeStyle=elbowEdgeStyle;html=1;startArrow=ERmany;startFill=0;endArrow=ERmandOne;endFill=0;entryX=1;entryY=0.5;entryDx=0;entryDy=0;fontColor=#FFFFFF;" parent="1" source="174" target="22" edge="1">
                    <mxGeometry relative="1" as="geometry">
                        <mxPoint x="713.91" y="-578" as="sourcePoint"/>
                        <mxPoint x="844.91" y="-128" as="targetPoint"/>
                        <Array as="points">
                            <mxPoint x="731" y="-203"/>
                        </Array>
                    </mxGeometry>
                </mxCell>
                <mxCell id="237" style="edgeStyle=none;html=1;startArrow=ERmany;startFill=0;endArrow=ERmany;endFill=0;fontColor=#FFFFFF;" parent="1" source="184" target="34" edge="1">
                    <mxGeometry relative="1" as="geometry"/>
                </mxCell>
                <mxCell id="184" value="Permission" style="swimlane;fontStyle=0;childLayout=stackLayout;horizontal=1;startSize=28;horizontalStack=0;resizeParent=1;resizeParentMax=0;resizeLast=0;collapsible=1;marginBottom=0;autosize=1;fixDash=0;snapToPoint=1;overflow=visible;glass=0;shadow=0;rounded=1;sketch=0;swimlaneLine=1;align=center;textDirection=ltr;labelBackgroundColor=none;arcSize=16;backgroundOutline=0;treeFolding=0;treeMoving=0;comic=0;fontFamily=Lucida Console;spacingTop=0;labelPadding=0;swimlaneFillColor=#4D4D4D;fillColor=#666600;fontColor=#FFFFFF;" parent="1" vertex="1">
                    <mxGeometry x="1098" y="157" width="270" height="88" as="geometry"/>
                </mxCell>
                <mxCell id="185" value="Name&#10;(String 255)" style="text;strokeColor=none;fillColor=none;align=left;verticalAlign=middle;spacingLeft=4;spacingRight=4;overflow=hidden;points=[[0,0.5],[1,0.5]];portConstraint=eastwest;rotatable=0;whiteSpace=wrap;resizeHeight=0;autosize=1;imageAspect=0;fontFamily=Lucida Console;rounded=0;glass=0;shadow=0;sketch=0;perimeterSpacing=1;spacingTop=2;spacingBottom=2;labelBorderColor=none;labelBackgroundColor=none;fontSize=8;metaEdit=0;backgroundOutline=0;fontColor=#FFFFFF;" parent="184" vertex="1">
                    <mxGeometry y="28" width="270" height="30" as="geometry"/>
                </mxCell>
                <mxCell id="186" value="Description&#10;(String 511)" style="text;strokeColor=none;fillColor=none;align=left;verticalAlign=middle;spacingLeft=4;spacingRight=4;overflow=hidden;points=[[0,0.5],[1,0.5]];portConstraint=eastwest;rotatable=0;whiteSpace=wrap;resizeHeight=0;autosize=1;imageAspect=0;fontFamily=Lucida Console;rounded=0;glass=0;shadow=0;sketch=0;perimeterSpacing=1;spacingTop=2;spacingBottom=2;labelBorderColor=none;labelBackgroundColor=none;fontSize=8;metaEdit=0;backgroundOutline=0;fontColor=#FFFFFF;" parent="184" vertex="1">
                    <mxGeometry y="58" width="270" height="30" as="geometry"/>
                </mxCell>
                <mxCell id="192" style="edgeStyle=entityRelationEdgeStyle;html=1;endArrow=ERmany;endFill=0;startArrow=ERmany;startFill=0;fontColor=#FFFFFF;" parent="1" source="45" target="184" edge="1">
                    <mxGeometry relative="1" as="geometry">
                        <mxPoint x="1698.034482758621" y="33.68965517241372" as="sourcePoint"/>
                    </mxGeometry>
                </mxCell>
                <mxCell id="195" value="PresencialAllocation" style="swimlane;fontStyle=0;childLayout=stackLayout;horizontal=1;startSize=26;horizontalStack=0;resizeParent=1;resizeParentMax=0;resizeLast=0;collapsible=1;marginBottom=0;autosize=1;fixDash=0;snapToPoint=1;overflow=visible;glass=0;shadow=0;rounded=1;sketch=0;swimlaneLine=1;align=center;textDirection=ltr;labelBackgroundColor=none;arcSize=16;backgroundOutline=0;treeFolding=0;treeMoving=0;comic=0;fontFamily=Lucida Console;spacingTop=0;labelPadding=0;swimlaneFillColor=#4D4D4D;fillColor=#005080;fontColor=#FFFFFF;" parent="1" vertex="1">
                    <mxGeometry x="438.91" y="-349" width="270" height="138" as="geometry"/>
                </mxCell>
                <mxCell id="196" value="Type&#10;(Picklist {&quot;stand&quot;, &quot;chair&quot;, &quot;other&quot;})" style="text;strokeColor=none;fillColor=none;align=left;verticalAlign=middle;spacingLeft=4;spacingRight=4;overflow=hidden;points=[[0,0.5],[1,0.5]];portConstraint=eastwest;rotatable=0;whiteSpace=wrap;resizeHeight=0;autosize=1;imageAspect=0;fontFamily=Lucida Console;rounded=0;glass=0;shadow=0;sketch=0;perimeterSpacing=1;spacingTop=2;spacingBottom=2;labelBorderColor=none;labelBackgroundColor=none;fontSize=8;metaEdit=0;backgroundOutline=0;fontColor=#FFFFFF;" parent="195" vertex="1">
                    <mxGeometry y="26" width="270" height="28" as="geometry"/>
                </mxCell>
                <mxCell id="207" value="LocalShortName&#10;(String 255)" style="text;strokeColor=none;fillColor=none;align=left;verticalAlign=middle;spacingLeft=4;spacingRight=4;overflow=hidden;points=[[0,0.5],[1,0.5]];portConstraint=eastwest;rotatable=0;whiteSpace=wrap;resizeHeight=0;autosize=1;imageAspect=0;fontFamily=Lucida Console;rounded=0;glass=0;shadow=0;sketch=0;perimeterSpacing=1;spacingTop=2;spacingBottom=2;labelBorderColor=none;labelBackgroundColor=none;fontSize=8;metaEdit=0;backgroundOutline=0;fontColor=#FFFFFF;" parent="195" vertex="1">
                    <mxGeometry y="54" width="270" height="28" as="geometry"/>
                </mxCell>
                <mxCell id="205" value="Begin&#10;(Datetime)" style="text;strokeColor=none;fillColor=none;align=left;verticalAlign=middle;spacingLeft=4;spacingRight=4;overflow=hidden;points=[[0,0.5],[1,0.5]];portConstraint=eastwest;rotatable=0;whiteSpace=wrap;resizeHeight=0;autosize=1;imageAspect=0;fontFamily=Lucida Console;rounded=0;glass=0;shadow=0;sketch=0;perimeterSpacing=1;spacingTop=2;spacingBottom=2;labelBorderColor=none;labelBackgroundColor=none;fontSize=8;metaEdit=0;backgroundOutline=0;fontColor=#FFFFFF;" parent="195" vertex="1">
                    <mxGeometry y="82" width="270" height="28" as="geometry"/>
                </mxCell>
                <mxCell id="206" value="End&#10;(Datetime)" style="text;strokeColor=none;fillColor=none;align=left;verticalAlign=middle;spacingLeft=4;spacingRight=4;overflow=hidden;points=[[0,0.5],[1,0.5]];portConstraint=eastwest;rotatable=0;whiteSpace=wrap;resizeHeight=0;autosize=1;imageAspect=0;fontFamily=Lucida Console;rounded=0;glass=0;shadow=0;sketch=0;perimeterSpacing=1;spacingTop=2;spacingBottom=2;labelBorderColor=none;labelBackgroundColor=none;fontSize=8;metaEdit=0;backgroundOutline=0;fontColor=#FFFFFF;" parent="195" vertex="1">
                    <mxGeometry y="110" width="270" height="28" as="geometry"/>
                </mxCell>
                <mxCell id="201" style="edgeStyle=elbowEdgeStyle;html=1;startArrow=ERmany;startFill=0;endArrow=ERmany;endFill=0;entryX=1;entryY=0.5;entryDx=0;entryDy=0;fontColor=#FFFFFF;" parent="1" source="195" target="21" edge="1">
                    <mxGeometry relative="1" as="geometry">
                        <Array as="points">
                            <mxPoint x="719" y="-75"/>
                        </Array>
                    </mxGeometry>
                </mxCell>
                <mxCell id="204" style="edgeStyle=orthogonalEdgeStyle;html=1;entryX=1;entryY=0.5;entryDx=0;entryDy=0;curved=1;startArrow=ERmany;startFill=0;endArrow=ERmandOne;endFill=0;fontColor=#FFFFFF;" parent="1" source="195" target="6" edge="1">
                    <mxGeometry relative="1" as="geometry">
                        <Array as="points"/>
                    </mxGeometry>
                </mxCell>
                <mxCell id="239" value="" style="ellipse;whiteSpace=wrap;html=1;aspect=fixed;fillColor=#666600;" vertex="1" parent="1">
                    <mxGeometry x="1077" y="563" width="64" height="64" as="geometry"/>
                </mxCell>
                <mxCell id="241" value="Sistema de usuários e permissionamento" style="text;html=1;strokeColor=none;fillColor=none;align=left;verticalAlign=middle;whiteSpace=wrap;rounded=0;fontSize=24;" vertex="1" parent="1">
                    <mxGeometry x="1154" y="546" width="264" height="103" as="geometry"/>
                </mxCell>
                <mxCell id="244" value="" style="ellipse;whiteSpace=wrap;html=1;aspect=fixed;fillColor=#004C99;" vertex="1" parent="1">
                    <mxGeometry x="1077" y="672" width="64" height="64" as="geometry"/>
                </mxCell>
                <mxCell id="245" value="Estrutura do evento" style="text;html=1;strokeColor=none;fillColor=none;align=center;verticalAlign=middle;whiteSpace=wrap;rounded=0;fontSize=24;" vertex="1" parent="1">
                    <mxGeometry x="1154" y="655" width="242" height="103" as="geometry"/>
                </mxCell>
                <mxCell id="246" value="" style="ellipse;whiteSpace=wrap;html=1;aspect=fixed;fillColor=#336600;" vertex="1" parent="1">
                    <mxGeometry x="1078" y="784" width="64" height="64" as="geometry"/>
                </mxCell>
                <mxCell id="247" value="Formulários" style="text;html=1;strokeColor=none;fillColor=none;align=center;verticalAlign=middle;whiteSpace=wrap;rounded=0;fontSize=24;" vertex="1" parent="1">
                    <mxGeometry x="1157" y="768" width="150" height="103" as="geometry"/>
                </mxCell>
                <mxCell id="248" value="" style="ellipse;whiteSpace=wrap;html=1;aspect=fixed;fillColor=#4C0099;" vertex="1" parent="1">
                    <mxGeometry x="1078" y="893" width="64" height="64" as="geometry"/>
                </mxCell>
                <mxCell id="249" value="Relatórios" style="text;html=1;strokeColor=none;fillColor=none;align=center;verticalAlign=middle;whiteSpace=wrap;rounded=0;fontSize=24;" vertex="1" parent="1">
                    <mxGeometry x="1157" y="877" width="126" height="103" as="geometry"/>
                </mxCell>
            </root>
        </mxGraphModel>
    </diagram>
</mxfile>